# xmcd
#
# Track frame offsets:
#	150
#	25952
#	45345
#	62995
#	82912
#	97747
#	117912
#	134757
#	147277
#
# Disc length: 2265 seconds
#
# Revision: 1
# Processed by: cddbd v1.5.1PL0 Copyright (c) Steve Scherf et al.
# Submitted via: audiograbber 1.83.01
#
DISCID=7408d709
DTITLE=Don Nix - Living by the days
DYEAR=1971
DGENRE=Country
TTITLE0=The shape i´m in
TTITLE1=Olena
TTITLE2=I saw the light
TTITLE3=She don´t want a lover
TTITLE4=Living by the days
TTITLE5=Going back to IUKA
TTITLE6=Three Angels
TTITLE7=Mary Louise
TTITLE8=My train´s done come and gone
EXTD=
EXTT0=
EXTT1=
EXTT2=
EXTT3=
EXTT4=
EXTT5=
EXTT6=
EXTT7=
EXTT8=
PLAYORDER=
